<?xml version="1.0" encoding="UTF-8" standalone="no"?>
<!-- Created with Inkscape (http://www.inkscape.org/) -->
<svg
   xmlns:svg="http://www.w3.org/2000/svg"
   xmlns="http://www.w3.org/2000/svg"
   version="1.0"
   width="1083"
   height="1083"
   viewBox="0 0 1083 1083"
   id="svg2"
   xml:space="preserve"
   style="fill-rule:evenodd">
 <defs
   id="defs4">
  <style
   type="text/css"
   id="style6" />
 </defs>
 
<g
   id="layer1"
   style="fill:#ffffff"><rect
     width="1082.9932"
     height="1082.9979"
     x="0.0046903454"
     y="-0.00073965825"
     id="rect2388"
     style="opacity:1;fill:#ffffff;fill-opacity:1;fill-rule:evenodd;stroke:none;stroke-width:0;stroke-miterlimit:4;stroke-dasharray:none;stroke-opacity:1" /></g><g
   id="layer2"
   style="fill:#000000"><g
     transform="matrix(0.949198,0,0,0.949198,27.509286,28.379509)"
     id="Layer_x0020_1"
     style="fill:#000000;fill-rule:evenodd">
  
  <path
   d="M 358.145,1070.42 L 728.559,1070.42 C 656.8407,959.812 595.632,754.06 595.632,600.762 C 748.932,600.75846 954.683,661.9681 1065.292,733.688 L 1065.2908,363.275 C 932.42082,439.7091 723.56782,489.246 591.92882,482.244 C 591.92882,328.946 653.13732,123.195 724.85582,12.586 L 354.44182,12.586 C 426.16012,123.194 487.36882,328.946 487.36782,482.245 C 334.06982,482.245 128.31882,421.0365 17.709819,349.318 L 17.707458,719.732 C 150.58146,643.2979 359.43346,593.762 491.07146,600.762 C 491.07146,754.06 429.86296,959.811 358.14446,1070.42 L 358.145,1070.42 z"
   id="path10"
   style="fill:#000000;stroke:none" />
 </g></g></svg>